# xmcd
#
# Track frame offsets:
#	150
#	15055
#	32185
#	47982
#	69126
#	90985
#	107357
#	124420
#	140157
#	156572
#
# Disc length: 2325 seconds
#
# Revision: 0
# Processed by: cddbd v1.5.1PL2 Copyright (c) Steve Scherf et al.
# Submitted via: EasyCDDAExtractor 9.0.0.1
#
DISCID=7d09130a
DTITLE=Sharyn lee - Sharyn lee Isolated State Of Mind
DYEAR=1900
DGENRE=Country
TTITLE0=Miracle
TTITLE1=My World
TTITLE2=Smile
TTITLE3=Perfect Day
TTITLE4=Life
TTITLE5=Undone
TTITLE6=Shade Of My Soul
TTITLE7=Heal me
TTITLE8=Truth
TTITLE9=Isolated State Of Mind
EXTD=
EXTT0=
EXTT1=
EXTT2=
EXTT3=
EXTT4=
EXTT5=
EXTT6=
EXTT7=
EXTT8=
EXTT9=
PLAYORDER=
